<?xml version="1.0" encoding="utf-8"?>
<!-- Generator: Adobe Illustrator 25.0.0, SVG Export Plug-In . SVG Version: 6.00 Build 0)  -->
<svg version="1.1" id="Livello_1" xmlns="http://www.w3.org/2000/svg" xmlns:xlink="http://www.w3.org/1999/xlink" x="0px" y="0px"
	 viewBox="0 0 500 500" style="enable-background:new 0 0 500 500;" xml:space="preserve">
<style type="text/css">
	.st0{fill:#FF385B;}
</style>
<g transform="translate(0.000000,500.000000) scale(0.100000,-0.100000)">
	<g>
		<path class="st0" d="M1195.2,4641.2c-547.8-42.7-997.4-437-1109.8-973.7c-19-93.4-22.2-291.3-19-1222.3L70.6,1438
			c0.3-68,11.5-135.5,33.3-200l9.9-29.4c91.8-269.1,266-497.1,494-647.5c223.2-147.2,414.8-204.2,682.4-202.7
			c250.1,0,470.2,64.9,661.8,194.7c351.5,235.9,549.4,606.4,549.4,1027.5c0,323-107.7,600-324.6,828c-39.6,41.2-71.2,82.3-71.2,91.8
			c0,9.5,42.7,64.9,96.6,121.9c114,126.7,235.9,362.6,273.9,536.7c34.8,159.9,33.2,397.4-6.3,552.5
			C2324,4289.7,1779.4,4687.1,1195.2,4641.2z M1630.5,4533.5c494-155.2,812.2-595.3,810.6-1116.2c0-204.2-39.6-362.6-131.4-538.3
			c-58.6-115.6-235.9-332.5-269.1-332.5c-7.9,0-47.5,23.7-88.7,53.8c-82.3,58.6-213.7,117.2-361,161.5
			c-72.8,22.2-150.4,28.5-340.4,30.1c-273.9,0-362.6-17.4-495.5-101.3c-228-145.7-164.7-338.8,147.2-446.5
			c87.1-30.1,137.7-34.8,340.4-36.4s256.5,3.2,361,34.8c129.8,36.4,262.8,98.2,364.1,167.8c36.4,25.3,72.8,38,90.2,33.2
			c76-23.7,262.8-307.1,326.1-492.4c213.7-636.5-148.8-1317.2-796.4-1496.1c-158.3-44.3-438.6-47.5-590.5-7.9
			C615.7,545.3,319.6,817.7,177.1,1204l-17,45.8c-17.1,46.1-25.9,94.9-26.1,144.1l-4.4,1049.7c-4.7,1200.1-4.7,1222.3,74.4,1413.8
			c147.2,364.1,449.6,617.5,848.6,709.3C1201.5,4601.6,1464.3,4585.7,1630.5,4533.5z M1420,2670c194.7-79.2,204.2-234.3,20.6-329.3
			c-205.8-106.1-612.7-55.4-698.2,85.5c-38,63.3-38,106.1,3.2,158.3c55.4,69.7,190,121.9,362.6,140.9
			C1179.3,2731.8,1329.7,2706.5,1420,2670z"/>
		<path class="st0" d="M1147.7,4075.9c-215.3-68.1-370.5-220.1-429.1-419.6c-38-133-25.3-319.8,31.7-435.4
			c120.3-247,384.7-384.7,652.3-342c416.4,66.5,641.2,506.6,451.2,885c-49.1,95-167.8,216.9-256.5,262.8
			C1467.5,4094.9,1274.3,4115.5,1147.7,4075.9z M1526,3939.8c98.2-49.1,186.8-139.3,234.3-234.3c30.1-61.7,36.4-99.7,36.4-224.8
			c0-126.7-6.3-161.5-36.4-218.5c-96.6-180.5-254.9-275.5-457.6-275.5c-197.9,0-357.8,99.7-457.6,288.1
			c-45.9,85.5-42.7,330.9,6.3,429.1c50.7,102.9,134.6,185.2,247,239.1c87.1,41.2,109.2,45.9,223.2,41.2
			C1418.4,3979.4,1467.5,3969.9,1526,3939.8z"/>
		<path class="st0" d="M1122.3,2096.9c-182.1-69.7-294.5-169.4-368.9-326.1c-44.3-93.4-49.1-117.2-49.1-261.2
			c0-147.2,3.2-166.2,50.7-261.2c64.9-133,161.5-229.6,289.7-291.3c95-45.9,115.6-49.1,269.1-49.1s174.2,3.2,259.6,47.5
			c462.3,232.7,463.9,875.5,1.6,1108.3c-80.7,41.2-114,47.5-245.4,50.7C1231.6,2117.5,1160.3,2111.2,1122.3,2096.9z M1502.3,1975
			c319.8-139.3,408.5-539.9,177.3-793.2c-115.6-126.7-199.5-163.1-373.6-163.1c-128.2,0-150.4,4.7-226.4,47.5
			C888,1172.3,796.2,1338.5,810.4,1557C832.6,1897.4,1187.2,2111.2,1502.3,1975z"/>
		<path class="st0" d="M4629.9,3555c-16.9-1.9-29.9-15.6-30.9-32.5c-4.6-72.7-7.8-287-7.8-534.2v-519.6c0-17.9,13.4-32.9,31.2-34.9
			l52.7-6c44.3-6.3,107.7-7.9,137.7-4.7l23.6,2c18.1,1.5,32,16.6,32.1,34.7l4.5,534.8l3,529.9c0.1,19.5-15.6,35.3-35.1,35.3h-96.1
			C4699,3559.8,4656.5,3557.9,4629.9,3555z"/>
		<path class="st0" d="M2928.8,3244.8c-186.8-61.7-273.9-190-273.9-405.3c0-147.2,28.5-223.2,114-308.7
			c85.5-85.5,152-110.8,292.9-110.8c177.3,0,292.9,64.9,356.2,196.3c101.3,218.5,31.7,490.8-153.6,592.1
			C3191.6,3249.5,3001.6,3270.1,2928.8,3244.8z M3144.1,3019.9c31.7-34.8,49.1-194.7,31.7-291.3c-22.2-114-112.4-152-194.7-80.7
			c-42.7,36.4-44.3,44.3-44.3,178.9c0,177.3,25.3,226.4,117.2,226.4C3095,3053.2,3123.5,3042.1,3144.1,3019.9z"/>
		<path class="st0" d="M3858.1,3233.7c-150.4-45.9-248.6-199.5-248.6-389.5c0-180.5,69.7-310.3,204.2-380
			c69.7-36.4,104.5-44.3,201.1-44.3c139.3,0,212.2,26.9,294.5,106.1c82.3,80.7,114,180.5,104.5,343.6
			c-7.9,144.1-31.7,202.7-118.7,286.6C4197,3251.1,4019.6,3282.7,3858.1,3233.7z M4098.8,3023.1c36.4-36.4,57-174.2,41.2-272.3
			c-20.6-120.3-118.7-177.3-196.3-112.4c-69.7,57-76,308.7-9.5,383.1C3972.1,3062.7,4059.2,3062.7,4098.8,3023.1z"/>
		<path class="st0" d="M2941.5,1723.3c-188.4-57-254.9-243.8-144.1-406.9l21.6-31.2c10.2-14.7,7.7-34.7-5.8-46.5l-50.7-44.2
			c-85.5-71.2-118.7-137.7-118.7-231.2c0-88.7,31.7-156.7,99.7-216.9c79.2-69.7,153.6-88.7,321.4-82.3
			c109.2,4.7,156.7,14.2,210.6,42.7l47.3,24.7c13.4,7,29.7,4.7,40.6-5.8l22.9-22.1c41.2-39.6,52.2-41.2,216.9-41.2h86.1
			c31.5,0,47.1,38.3,24.5,60.3l-53.6,52.1l-93.5,89.7c-12.7,12.1-14.4,31.8-4.1,46l15.3,21.1c39.6,55.4,117.2,226.4,133,289.7l0,0
			c4.9,21.9-11.8,42.7-34.3,42.7h-90.8h-111.6c-13.9,0-26.6-8.2-32.2-21l-30.4-69.2c-22.2-49.1-44.3-93.4-47.5-96.6
			c-9.5-11.1-150.4,106.1-150.4,125.1c0,7.9,28.5,41.2,64.9,72.8c83.9,76,109.2,128.2,109.2,221.7
			c-1.6,115.6-53.8,183.7-172.6,223.2C3155.2,1742.3,3006.4,1742.3,2941.5,1723.3z M3139.4,1531.7c20.6-34.8,3.2-101.3-39.6-140.9
			l-10.6-9.6c-13.7-12.4-34.6-12.1-47.9,0.6l-12.7,12.2c-39.6,38-49.1,120.3-17.4,152C3038,1572.9,3118.8,1563.4,3139.4,1531.7z
			 M3153.6,896.8c-11.1-11.1-57-20.6-99.7-20.6c-61.7,0-85.5,7.9-102.9,30.1c-30.1,41.2-28.5,120.3,3.2,166.2l2.7,3.6
			c12.8,17.3,37.9,19.1,53.1,4l67.7-67.7C3155.2,934.8,3169.4,912.7,3153.6,896.8z"/>
		<path class="st0" d="M3904.1,1696.4c-3.2-15.8-6.3-253.3-4.7-527.2l2.9-463.8c0.1-19.3,15.8-34.9,35.1-34.9h218.4
			c297.6,0,380,17.4,467.1,101.3c137.7,131.4,114,357.8-42.7,422.7c-28.5,12.7-52.2,25.3-52.2,30.1c0,3.2,22.2,19,47.5,31.7
			c107.7,55.4,147.2,226.4,79.2,337.2c-60.2,98.2-142.5,120.3-462.3,126.7C3932.6,1724.9,3912,1723.3,3904.1,1696.4z M4371.1,1501.6
			c22.2-12.7,30.1-33.2,30.1-79.2c0-53.8-6.3-66.5-47.5-87.1c-25.3-12.7-74.4-23.7-110.8-23.7h-28.2c-19.4,0-35.1,15.7-35.1,35.1
			v67.8v67.8c0,19.4,15.7,35.1,35.1,35.1h45.6C4304.6,1517.4,4353.7,1509.5,4371.1,1501.6z M4360,1099.5
			c71.2-30.1,90.2-104.5,45.9-166.2c-26.9-34.8-45.9-41.2-129.8-45.9l-59.7-2.9c-20.1-1-36.9,15-36.9,35.1v83.4v83.6
			c0,19.4,15.7,35.1,35.1,35.1h28.2C4277.7,1121.6,4331.5,1112.1,4360,1099.5z"/>
	</g>
</g>
</svg>
