<?xml version="1.0" encoding="utf-8"?>
<!-- Generator: Adobe Illustrator 25.0.0, SVG Export Plug-In . SVG Version: 6.00 Build 0)  -->
<svg version="1.1" id="Livello_1" xmlns="http://www.w3.org/2000/svg" xmlns:xlink="http://www.w3.org/1999/xlink" x="0px" y="0px"
	 viewBox="0 0 500 500" style="enable-background:new 0 0 500 500;" xml:space="preserve">
<style type="text/css">
	.st0{fill:#FF385B;}
</style>
<g>
	<path class="st0" d="M240.2,11.5c-61,4.8-111.1,48.7-123.7,108.5c-2.1,10.4-2.5,32.5-2.1,136.2l0.5,112.2c0,7.6,1.3,15.1,3.7,22.3
		l1.1,3.3c10.2,30,29.6,55.4,55,72.1c24.9,16.4,46.2,22.8,76,22.6c27.9,0,52.4-7.2,73.7-21.7c39.2-26.3,61.2-67.6,61.2-114.5
		c0-36-12-66.9-36.2-92.3c-4.4-4.6-7.9-9.2-7.9-10.2c0-1.1,4.8-7.2,10.8-13.6c12.7-14.1,26.3-40.4,30.5-59.8
		c3.9-17.8,3.7-44.3-0.7-61.6C366,50.6,305.3,6.3,240.2,11.5z M288.7,23.5c55,17.3,90.5,66.3,90.3,124.4c0,22.8-4.4,40.4-14.6,60
		c-6.5,12.9-26.3,37-30,37c-0.9,0-5.3-2.6-9.9-6c-9.2-6.5-23.8-13.1-40.2-18c-8.1-2.5-16.8-3.2-37.9-3.4c-30.5,0-40.4,1.9-55.2,11.3
		c-25.4,16.2-18.3,37.7,16.4,49.7c9.7,3.4,15.3,3.9,37.9,4.1c22.6,0.2,28.6-0.4,40.2-3.9c14.5-4.1,29.3-10.9,40.6-18.7
		c4.1-2.8,8.1-4.2,10.1-3.7c8.5,2.6,29.3,34.2,36.3,54.9c23.8,70.9-16.6,146.8-88.7,166.7c-17.6,4.9-48.9,5.3-65.8,0.9
		c-42.5-10.9-75.5-41.3-91.4-84.3l-1.9-5.1c-1.9-5.1-2.9-10.6-2.9-16.1l-0.5-117c-0.5-133.7-0.5-136.2,8.3-157.5
		c16.4-40.6,50.1-68.8,94.5-79C240.9,15.9,270.2,17.6,288.7,23.5z M265.2,231.1c21.7,8.8,22.8,26.1,2.3,36.7
		c-22.9,11.8-68.3,6.2-77.8-9.5c-4.2-7.1-4.2-11.8,0.4-17.6c6.2-7.8,21.2-13.6,40.4-15.7C238.4,224.2,255.2,227,265.2,231.1z"/>
	<path class="st0" d="M232,74.4c-24,7.6-41.3,24.5-47.8,46.7c-4.2,14.8-2.8,35.6,3.5,48.5c13.4,27.5,42.9,42.9,72.7,38.1
		c46.4-7.4,71.4-56.4,50.3-98.6c-5.5-10.6-18.7-24.2-28.6-29.3C267.6,72.3,246.1,70,232,74.4z M274.1,89.6
		c10.9,5.5,20.8,15.5,26.1,26.1c3.4,6.9,4.1,11.1,4.1,25c0,14.1-0.7,18-4.1,24.3c-10.8,20.1-28.4,30.7-51,30.7
		c-22,0-39.9-11.1-51-32.1c-5.1-9.5-4.8-36.9,0.7-47.8c5.6-11.5,15-20.6,27.5-26.6c9.7-4.6,12.2-5.1,24.9-4.6
		C262.1,85.2,267.6,86.3,274.1,89.6z"/>
	<path class="st0" d="M228.8,294.9c-20.3,7.8-32.8,18.9-41.1,36.3c-4.9,10.4-5.5,13.1-5.5,29.1c0,16.4,0.4,18.5,5.6,29.1
		c7.2,14.8,18,25.6,32.3,32.5c10.6,5.1,12.9,5.5,30,5.5s19.4-0.4,28.9-5.3c51.5-25.9,51.7-97.5,0.2-123.5c-9-4.6-12.7-5.3-27.3-5.6
		C241,292.6,233,293.3,228.8,294.9z M271.1,308.5c35.6,15.5,45.5,60.2,19.8,88.4c-12.9,14.1-22.2,18.2-41.6,18.2
		c-14.3,0-16.8-0.5-25.2-5.3c-21.3-11.8-31.6-30.3-30-54.7C196.5,317.2,236,293.3,271.1,308.5z"/>
</g>
</svg>
